<svg width="22" height="21" viewBox="0 0 22 21" fill="none" xmlns="http://www.w3.org/2000/svg">
    <path d="M21.9541 0.379022V0H13.0034V0.379022C13.0034 2.59485 14.1404 4.48996 16.0939 5.10222L13.9655 8.42596H7.95947L5.86027 5.10222C7.81369 4.51911 8.95076 2.624 8.95076 0.379022V0H0V0.379022C0 2.85724 1.45778 4.92729 3.81938 5.248V15.1609C1.45778 15.4816 0 17.5516 0 20.0299V20.4089H8.95076V20.0299C8.95076 17.5225 7.49298 15.4524 5.10222 15.1317V6.18098L10.0878 14.4028H11.8372L16.8228 6.18098V15.1609C14.4612 15.4816 13.0034 17.5516 13.0034 20.0299V20.4089H21.9541V20.0299C21.9541 17.5225 20.4964 15.4524 18.1056 15.1317V5.27716C20.4964 4.95645 21.9541 2.8864 21.9541 0.379022Z"
          fill="#B97FFA"/>
</svg>
