<svg width="731" height="400" viewBox="0 0 731 400" xmlns="http://www.w3.org/2000/svg">
    <defs>
        <pattern id="satori_pattern_id_0" x="0" y="0" width="1" height="1" patternUnits="objectBoundingBox">
            <linearGradient id="satori_biid_0" x1="0" y1="0" x2="0" y2="1">
                <stop offset="0%" stop-color="#E5D1F9"></stop>
                <stop offset="100%" stop-color="#fff1f1"></stop>
            </linearGradient>
            <rect x="0" y="0" width="731" height="400" fill="url(#satori_biid_0)"></rect>
        </pattern>
    </defs>
    <rect x="0" y="0" width="731" height="400" fill="url(#satori_pattern_id_0)"></rect>
    <clipPath id="satori_bct-id-0">
        <path d="M201.0 147.2L191.8 147.2L191.8 103.5L220.7 103.5L220.7 111.1L201.0 111.1L201.0 121.5L218.8 121.5L218.8 129.1L201.0 129.1L201.0 147.2ZM233.2 147.2L224.2 147.2L224.2 114.4L233.0 114.4L233.0 120.1L233.3 120.1Q234.2 117.1 236.3 115.5Q238.4 114.0 241.2 114.0L241.2 114.0Q241.8 114.0 242.6 114.0Q243.4 114.1 244.0 114.3L244.0 114.3L244.0 122.3Q243.4 122.1 242.3 122.0Q241.1 121.8 240.2 121.8L240.2 121.8Q238.2 121.8 236.6 122.7Q235.0 123.6 234.1 125.1Q233.2 126.6 233.2 128.6L233.2 128.6L233.2 147.2ZM255.1 147.8L255.1 147.8Q252.0 147.8 249.5 146.7Q247.1 145.6 245.7 143.4Q244.2 141.3 244.2 138.0L244.2 138.0Q244.2 135.3 245.2 133.4Q246.2 131.6 248.0 130.5Q249.7 129.3 251.9 128.8Q254.1 128.2 256.5 127.9L256.5 127.9Q259.4 127.6 261.1 127.4Q262.9 127.1 263.7 126.6Q264.5 126.0 264.5 125.0L264.5 125.0L264.5 124.9Q264.5 122.8 263.2 121.7Q261.9 120.6 259.6 120.6L259.6 120.6Q257.1 120.6 255.7 121.7Q254.2 122.8 253.8 124.4L253.8 124.4L245.4 123.7Q246.0 120.7 247.9 118.6Q249.8 116.4 252.7 115.2Q255.7 114.0 259.6 114.0L259.6 114.0Q262.4 114.0 264.9 114.6Q267.4 115.3 269.3 116.6Q271.3 118.0 272.4 120.1Q273.5 122.2 273.5 125.1L273.5 125.1L273.5 147.2L264.9 147.2L264.9 142.6L264.7 142.6Q263.9 144.2 262.6 145.3Q261.2 146.5 259.4 147.1Q257.5 147.8 255.1 147.8ZM257.7 141.5L257.7 141.5Q259.7 141.5 261.2 140.7Q262.8 139.9 263.6 138.6Q264.5 137.2 264.5 135.5L264.5 135.5L264.5 132.0Q264.1 132.3 263.4 132.5Q262.6 132.7 261.7 132.9Q260.8 133.1 259.9 133.2Q259.0 133.4 258.2 133.5L258.2 133.5Q256.6 133.7 255.4 134.2Q254.2 134.7 253.6 135.6Q252.9 136.4 252.9 137.7L252.9 137.7Q252.9 139.6 254.3 140.5Q255.6 141.5 257.7 141.5ZM293.4 147.8L293.4 147.8Q288.3 147.8 284.7 145.7Q281.1 143.5 279.2 139.7Q277.3 135.9 277.3 130.9L277.3 130.9Q277.3 125.9 279.2 122.1Q281.2 118.3 284.8 116.1Q288.4 114.0 293.3 114.0L293.3 114.0Q297.6 114.0 300.8 115.6Q304.0 117.1 305.9 119.9Q307.8 122.7 308.0 126.5L308.0 126.5L299.4 126.5Q299.1 124.1 297.5 122.6Q296.0 121.1 293.5 121.1L293.5 121.1Q291.4 121.1 289.8 122.2Q288.2 123.4 287.4 125.5Q286.5 127.7 286.5 130.8L286.5 130.8Q286.5 133.9 287.4 136.1Q288.2 138.3 289.8 139.5Q291.4 140.6 293.5 140.6L293.5 140.6Q295.0 140.6 296.3 140.0Q297.5 139.3 298.3 138.1Q299.2 136.9 299.4 135.2L299.4 135.2L308.0 135.2Q307.8 138.9 306.0 141.8Q304.1 144.6 300.9 146.2Q297.7 147.8 293.4 147.8ZM309.5 114.4L329.2 114.4L329.2 121.3L309.5 121.3L309.5 114.4ZM314.0 138.3L314.0 106.6L323.1 106.6L323.1 137.1Q323.1 138.4 323.5 139.1Q323.8 139.7 324.5 140.0Q325.2 140.3 326.1 140.3L326.1 140.3Q326.8 140.3 327.4 140.2Q328.1 140.1 328.4 140.0L328.4 140.0L329.8 146.8Q329.1 147.0 327.9 147.3Q326.7 147.5 324.9 147.6L324.9 147.6Q321.6 147.7 319.2 146.7Q316.7 145.7 315.3 143.6Q314.0 141.5 314.0 138.3L314.0 138.3ZM342.2 147.2L333.1 147.2L333.1 114.4L342.2 114.4L342.2 147.2ZM337.7 110.2L337.7 110.2Q335.7 110.2 334.2 108.9Q332.8 107.5 332.8 105.6L332.8 105.6Q332.8 103.7 334.2 102.4Q335.7 101.0 337.7 101.0L337.7 101.0Q339.7 101.0 341.2 102.4Q342.6 103.7 342.6 105.6L342.6 105.6Q342.6 107.5 341.2 108.9Q339.7 110.2 337.7 110.2ZM362.2 147.8L362.2 147.8Q357.3 147.8 353.7 145.7Q350.1 143.6 348.1 139.8Q346.1 136.0 346.1 130.9L346.1 130.9Q346.1 125.9 348.1 122.1Q350.1 118.2 353.7 116.1Q357.3 114.0 362.2 114.0L362.2 114.0Q367.2 114.0 370.8 116.1Q374.4 118.2 376.4 122.1Q378.4 125.9 378.4 130.9L378.4 130.9Q378.4 136.0 376.4 139.8Q374.4 143.6 370.8 145.7Q367.2 147.8 362.2 147.8ZM362.3 140.8L362.3 140.8Q364.5 140.8 366.1 139.5Q367.6 138.2 368.3 136.0Q369.1 133.7 369.1 130.9L369.1 130.9Q369.1 128.0 368.3 125.8Q367.6 123.5 366.1 122.2Q364.5 120.9 362.3 120.9L362.3 120.9Q360.0 120.9 358.5 122.2Q356.9 123.5 356.1 125.8Q355.4 128.0 355.4 130.9L355.4 130.9Q355.4 133.7 356.1 136.0Q356.9 138.2 358.5 139.5Q360.0 140.8 362.3 140.8ZM391.4 128.2L391.4 128.2L391.4 147.2L382.3 147.2L382.3 114.4L390.9 114.4L390.9 120.2L391.3 120.2Q392.4 117.4 395.0 115.7Q397.5 114.0 401.2 114.0L401.2 114.0Q404.6 114.0 407.1 115.5Q409.6 117.0 411.0 119.7Q412.4 122.5 412.4 126.3L412.4 126.3L412.4 147.2L403.4 147.2L403.4 127.9Q403.4 124.9 401.8 123.2Q400.3 121.5 397.6 121.5L397.6 121.5Q395.7 121.5 394.3 122.3Q392.9 123.1 392.1 124.6Q391.4 126.1 391.4 128.2ZM426.9 147.8L426.9 147.8Q423.8 147.8 421.3 146.7Q418.9 145.6 417.5 143.4Q416.0 141.3 416.0 138.0L416.0 138.0Q416.0 135.3 417.0 133.4Q418.1 131.6 419.8 130.5Q421.5 129.3 423.7 128.8Q425.9 128.2 428.3 127.9L428.3 127.9Q431.2 127.6 432.9 127.4Q434.7 127.1 435.5 126.6Q436.3 126.0 436.3 125.0L436.3 125.0L436.3 124.9Q436.3 122.8 435.0 121.7Q433.7 120.6 431.4 120.6L431.4 120.6Q429.0 120.6 427.5 121.7Q426.1 122.8 425.6 124.4L425.6 124.4L417.2 123.7Q417.8 120.7 419.7 118.6Q421.6 116.4 424.6 115.2Q427.5 114.0 431.5 114.0L431.5 114.0Q434.2 114.0 436.7 114.6Q439.2 115.3 441.1 116.6Q443.1 118.0 444.2 120.1Q445.3 122.2 445.3 125.1L445.3 125.1L445.3 147.2L436.7 147.2L436.7 142.6L436.5 142.6Q435.7 144.2 434.4 145.3Q433.1 146.5 431.2 147.1Q429.3 147.8 426.9 147.8ZM429.5 141.5L429.5 141.5Q431.5 141.5 433.1 140.7Q434.6 139.9 435.5 138.6Q436.3 137.2 436.3 135.5L436.3 135.5L436.3 132.0Q435.9 132.3 435.2 132.5Q434.4 132.7 433.5 132.9Q432.6 133.1 431.7 133.2Q430.8 133.4 430.0 133.5L430.0 133.5Q428.4 133.7 427.2 134.2Q426.0 134.7 425.4 135.6Q424.7 136.4 424.7 137.7L424.7 137.7Q424.7 139.6 426.1 140.5Q427.4 141.5 429.5 141.5ZM450.4 103.5L459.5 103.5L459.5 147.2L450.4 147.2L450.4 103.5ZM473.8 147.2L464.7 147.2L464.7 114.4L473.8 114.4L473.8 147.2ZM469.3 110.2L469.3 110.2Q467.3 110.2 465.8 108.9Q464.4 107.5 464.4 105.6L464.4 105.6Q464.4 103.7 465.8 102.4Q467.3 101.0 469.3 101.0L469.3 101.0Q471.3 101.0 472.7 102.4Q474.2 103.7 474.2 105.6L474.2 105.6Q474.2 107.5 472.7 108.9Q471.3 110.2 469.3 110.2ZM506.4 147.2L478.9 147.2L478.9 141.7L494.9 121.9L494.9 121.7L479.4 121.7L479.4 114.4L505.8 114.4L505.8 120.3L490.8 139.7L490.8 139.9L506.4 139.9L506.4 147.2ZM525.3 147.8L525.3 147.8Q520.3 147.8 516.6 145.7Q513.0 143.7 511.0 139.9Q509.1 136.1 509.1 130.9L509.1 130.9Q509.1 125.9 511.0 122.1Q513.0 118.3 516.6 116.1Q520.1 114.0 525.0 114.0L525.0 114.0Q528.2 114.0 531.0 115.0Q533.8 116.1 535.9 118.1Q538.0 120.2 539.2 123.3Q540.3 126.5 540.3 130.6L540.3 130.6L540.3 133.1L512.7 133.1L512.7 127.5L531.8 127.5Q531.8 125.5 530.9 124.0Q530.1 122.5 528.6 121.6Q527.1 120.8 525.1 120.8L525.1 120.8Q523.0 120.8 521.5 121.7Q519.9 122.7 519.0 124.3Q518.1 125.9 518.1 127.8L518.1 127.8L518.1 133.1Q518.1 135.6 519.0 137.3Q519.9 139.1 521.5 140.1Q523.2 141.0 525.5 141.0L525.5 141.0Q527.0 141.0 528.2 140.6Q529.5 140.2 530.4 139.3Q531.3 138.5 531.8 137.2L531.8 137.2L540.2 137.8Q539.5 140.8 537.5 143.1Q535.6 145.3 532.5 146.6Q529.4 147.8 525.3 147.8Z "></path>
    </clipPath>
    <defs>
        <pattern id="satori_pattern_id-0_0" x="0" y="0" width="1" height="1" patternUnits="objectBoundingBox">
            <linearGradient id="satori_biid-0_0" x1="0" y1="0" x2="1" y2="0">
                <stop offset="0%" stop-color="rgb(0,124,240)"></stop>
                <stop offset="100%" stop-color="rgb(0,223,216)"></stop>
            </linearGradient>
            <rect x="0" y="0" width="355" height="73" fill="url(#satori_biid-0_0)"></rect>
        </pattern>
    </defs>
    <rect x="188" y="91" width="355" height="73" fill="url(#satori_pattern_id-0_0)"
          clip-path="url(#satori_bct-id-0)"></rect>
    <clipPath id="satori_bct-id-1">
        <path d="M254.0 220.2L244.8 220.2L244.8 176.5L262.0 176.5Q267.0 176.5 270.5 178.3Q274.0 180.0 275.8 183.2Q277.6 186.5 277.6 190.8L277.6 190.8Q277.6 195.1 275.8 198.2Q273.9 201.4 270.4 203.0Q266.8 204.7 261.8 204.7L261.8 204.7L250.2 204.7L250.2 197.3L260.3 197.3Q262.9 197.3 264.7 196.6Q266.4 195.8 267.3 194.4Q268.1 192.9 268.1 190.8L268.1 190.8Q268.1 188.6 267.3 187.1Q266.4 185.6 264.7 184.8Q262.9 184.1 260.2 184.1L260.2 184.1L254.0 184.1L254.0 220.2ZM258.4 200.3L268.4 200.3L279.2 220.2L269.0 220.2L258.4 200.3ZM296.4 220.8L296.4 220.8Q291.3 220.8 287.7 218.7Q284.0 216.7 282.1 212.9Q280.1 209.1 280.1 203.9L280.1 203.9Q280.1 198.9 282.1 195.1Q284.0 191.3 287.6 189.1Q291.2 187.0 296.0 187.0L296.0 187.0Q299.2 187.0 302.0 188.0Q304.8 189.1 306.9 191.1Q309.0 193.2 310.2 196.3Q311.4 199.5 311.4 203.6L311.4 203.6L311.4 206.1L283.7 206.1L283.7 200.5L302.8 200.5Q302.8 198.5 302.0 197.0Q301.1 195.5 299.6 194.6Q298.1 193.8 296.1 193.8L296.1 193.8Q294.1 193.8 292.5 194.7Q290.9 195.7 290.0 197.3Q289.1 198.9 289.1 200.8L289.1 200.8L289.1 206.1Q289.1 208.6 290.0 210.3Q290.9 212.1 292.6 213.1Q294.2 214.0 296.5 214.0L296.5 214.0Q298.0 214.0 299.3 213.6Q300.5 213.2 301.4 212.3Q302.3 211.5 302.8 210.2L302.8 210.2L311.2 210.8Q310.5 213.8 308.6 216.1Q306.6 218.3 303.5 219.6Q300.4 220.8 296.4 220.8ZM330.1 220.8L330.1 220.8Q325.1 220.8 321.4 218.7Q317.8 216.5 315.9 212.7Q314.0 208.9 314.0 203.9L314.0 203.9Q314.0 198.9 315.9 195.1Q317.9 191.3 321.5 189.1Q325.1 187.0 330.0 187.0L330.0 187.0Q334.3 187.0 337.5 188.6Q340.8 190.1 342.6 192.9Q344.5 195.7 344.7 199.5L344.7 199.5L336.1 199.5Q335.8 197.1 334.2 195.6Q332.7 194.1 330.2 194.1L330.2 194.1Q328.1 194.1 326.5 195.2Q325.0 196.4 324.1 198.5Q323.2 200.7 323.2 203.8L323.2 203.8Q323.2 206.9 324.1 209.1Q324.9 211.3 326.5 212.5Q328.1 213.6 330.2 213.6L330.2 213.6Q331.8 213.6 333.0 213.0Q334.2 212.3 335.1 211.1Q335.9 209.9 336.1 208.2L336.1 208.2L344.7 208.2Q344.5 211.9 342.7 214.8Q340.8 217.6 337.7 219.2Q334.5 220.8 330.1 220.8ZM357.6 220.2L348.5 220.2L348.5 187.4L357.3 187.4L357.3 193.1L357.7 193.1Q358.6 190.1 360.7 188.5Q362.8 187.0 365.5 187.0L365.5 187.0Q366.2 187.0 367.0 187.0Q367.8 187.1 368.4 187.3L368.4 187.3L368.4 195.3Q367.8 195.1 366.6 195.0Q365.5 194.8 364.6 194.8L364.6 194.8Q362.6 194.8 361.0 195.7Q359.4 196.6 358.5 198.1Q357.6 199.6 357.6 201.6L357.6 201.6L357.6 220.2ZM384.4 220.8L384.4 220.8Q379.4 220.8 375.8 218.7Q372.1 216.7 370.2 212.9Q368.2 209.1 368.2 203.9L368.2 203.9Q368.2 198.9 370.2 195.1Q372.1 191.3 375.7 189.1Q379.3 187.0 384.1 187.0L384.1 187.0Q387.3 187.0 390.1 188.0Q392.9 189.1 395.0 191.1Q397.1 193.2 398.3 196.3Q399.5 199.5 399.5 203.6L399.5 203.6L399.5 206.1L371.8 206.1L371.8 200.5L390.9 200.5Q390.9 198.5 390.1 197.0Q389.2 195.5 387.7 194.6Q386.2 193.8 384.2 193.8L384.2 193.8Q382.2 193.8 380.6 194.7Q379.0 195.7 378.1 197.3Q377.2 198.9 377.2 200.8L377.2 200.8L377.2 206.1Q377.2 208.6 378.1 210.3Q379.0 212.1 380.7 213.1Q382.3 214.0 384.6 214.0L384.6 214.0Q386.1 214.0 387.4 213.6Q388.6 213.2 389.5 212.3Q390.4 211.5 390.9 210.2L390.9 210.2L399.3 210.8Q398.6 213.8 396.7 216.1Q394.7 218.3 391.6 219.6Q388.5 220.8 384.4 220.8ZM412.7 220.8L412.7 220.8Q409.6 220.8 407.1 219.7Q404.7 218.6 403.3 216.4Q401.9 214.3 401.9 211.0L401.9 211.0Q401.9 208.3 402.9 206.4Q403.9 204.6 405.6 203.5Q407.3 202.3 409.5 201.8Q411.7 201.2 414.2 200.9L414.2 200.9Q417.0 200.6 418.8 200.4Q420.5 200.1 421.3 199.6Q422.1 199.0 422.1 198.0L422.1 198.0L422.1 197.9Q422.1 195.8 420.8 194.7Q419.5 193.6 417.2 193.6L417.2 193.6Q414.8 193.6 413.3 194.7Q411.9 195.8 411.4 197.4L411.4 197.4L403.0 196.7Q403.6 193.7 405.5 191.6Q407.4 189.4 410.4 188.2Q413.3 187.0 417.3 187.0L417.3 187.0Q420.0 187.0 422.5 187.6Q425.0 188.3 426.9 189.6Q428.9 191.0 430.0 193.1Q431.2 195.2 431.2 198.1L431.2 198.1L431.2 220.2L422.5 220.2L422.5 215.6L422.3 215.6Q421.5 217.2 420.2 218.3Q418.9 219.5 417.0 220.1Q415.2 220.8 412.7 220.8ZM415.3 214.5L415.3 214.5Q417.3 214.5 418.9 213.7Q420.4 212.9 421.3 211.6Q422.1 210.2 422.1 208.5L422.1 208.5L422.1 205.0Q421.7 205.3 421.0 205.5Q420.2 205.7 419.3 205.9Q418.4 206.1 417.5 206.2Q416.6 206.4 415.8 206.5L415.8 206.5Q414.2 206.7 413.0 207.2Q411.9 207.7 411.2 208.6Q410.5 209.4 410.5 210.7L410.5 210.7Q410.5 212.6 411.9 213.5Q413.2 214.5 415.3 214.5ZM433.9 187.4L453.6 187.4L453.6 194.3L433.9 194.3L433.9 187.4ZM438.4 211.3L438.4 179.6L447.5 179.6L447.5 210.1Q447.5 211.4 447.8 212.1Q448.2 212.7 448.9 213.0Q449.6 213.3 450.5 213.3L450.5 213.3Q451.2 213.3 451.8 213.2Q452.4 213.1 452.8 213.0L452.8 213.0L454.2 219.8Q453.5 220.0 452.3 220.3Q451.1 220.5 449.3 220.6L449.3 220.6Q446.0 220.7 443.5 219.7Q441.1 218.7 439.7 216.6Q438.4 214.5 438.4 211.3L438.4 211.3ZM472.1 220.8L472.1 220.8Q467.0 220.8 463.4 218.7Q459.8 216.7 457.8 212.9Q455.9 209.1 455.9 203.9L455.9 203.9Q455.9 198.9 457.8 195.1Q459.8 191.3 463.3 189.1Q466.9 187.0 471.7 187.0L471.7 187.0Q475.0 187.0 477.8 188.0Q480.6 189.1 482.7 191.1Q484.8 193.2 485.9 196.3Q487.1 199.5 487.1 203.6L487.1 203.6L487.1 206.1L459.5 206.1L459.5 200.5L478.6 200.5Q478.6 198.5 477.7 197.0Q476.9 195.5 475.4 194.6Q473.9 193.8 471.9 193.8L471.9 193.8Q469.8 193.8 468.2 194.7Q466.6 195.7 465.7 197.3Q464.8 198.9 464.8 200.8L464.8 200.8L464.8 206.1Q464.8 208.6 465.7 210.3Q466.6 212.1 468.3 213.1Q470.0 214.0 472.2 214.0L472.2 214.0Q473.8 214.0 475.0 213.6Q476.3 213.2 477.2 212.3Q478.1 211.5 478.5 210.2L478.5 210.2L486.9 210.8Q486.3 213.8 484.3 216.1Q482.3 218.3 479.2 219.6Q476.1 220.8 472.1 220.8Z "></path>
    </clipPath>
    <defs>
        <pattern id="satori_pattern_id-1_0" x="0" y="0" width="1" height="1" patternUnits="objectBoundingBox">
            <linearGradient id="satori_biid-1_0" x1="0" y1="0" x2="1" y2="0">
                <stop offset="0%" stop-color="rgb(121,40,202)"></stop>
                <stop offset="100%" stop-color="rgb(255,0,128)"></stop>
            </linearGradient>
            <rect x="0" y="0" width="249" height="72" fill="url(#satori_biid-1_0)"></rect>
        </pattern>
    </defs>
    <rect x="241" y="164" width="249" height="72" fill="url(#satori_pattern_id-1_0)"
          clip-path="url(#satori_bct-id-1)"></rect>
    <clipPath id="satori_bct-id-2">
        <path d="M177.9 270.3L177.9 270.3Q177.9 277.5 175.2 282.5Q172.5 287.5 167.9 290.1Q163.2 292.8 157.5 292.8L157.5 292.8Q151.6 292.8 147.0 290.1Q142.4 287.5 139.7 282.5Q137.0 277.5 137.0 270.3L137.0 270.3Q137.0 263.2 139.7 258.2Q142.4 253.2 147.0 250.6Q151.6 247.9 157.5 247.9L157.5 247.9Q163.2 247.9 167.9 250.6Q172.5 253.2 175.2 258.2Q177.9 263.2 177.9 270.3ZM168.5 270.3L168.5 270.3Q168.5 265.7 167.2 262.5Q165.8 259.4 163.3 257.7Q160.8 256.1 157.5 256.1L157.5 256.1Q154.1 256.1 151.6 257.7Q149.1 259.4 147.8 262.5Q146.4 265.7 146.4 270.3L146.4 270.3Q146.4 275.0 147.8 278.1Q149.1 281.3 151.6 283.0Q154.1 284.6 157.5 284.6L157.5 284.6Q160.8 284.6 163.3 283.0Q165.8 281.3 167.2 278.1Q168.5 275.0 168.5 270.3ZM198.6 292.2L189.0 292.2L180.1 259.4L189.3 259.4L194.3 281.4L194.6 281.4L199.9 259.4L208.9 259.4L214.3 281.3L214.6 281.3L219.6 259.4L228.7 259.4L219.8 292.2L210.2 292.2L204.6 271.6L204.2 271.6L198.6 292.2ZM240.6 273.2L240.6 273.2L240.6 292.2L231.5 292.2L231.5 259.4L240.2 259.4L240.2 265.2L240.6 265.2Q241.7 262.4 244.2 260.7Q246.8 259.0 250.4 259.0L250.4 259.0Q253.8 259.0 256.4 260.5Q258.9 262.0 260.3 264.7Q261.7 267.5 261.7 271.3L261.7 271.3L261.7 292.2L252.6 292.2L252.6 272.9Q252.7 269.9 251.1 268.2Q249.6 266.5 246.8 266.5L246.8 266.5Q245.0 266.5 243.6 267.3Q242.2 268.1 241.4 269.6Q240.6 271.1 240.6 273.2Z M287.8 292.2L278.8 292.2L278.8 259.4L287.8 259.4L287.8 292.2ZM283.3 255.2L283.3 255.2Q281.3 255.2 279.9 253.9Q278.4 252.5 278.4 250.6L278.4 250.6Q278.4 248.7 279.9 247.4Q281.3 246.0 283.3 246.0L283.3 246.0Q285.4 246.0 286.8 247.4Q288.2 248.7 288.2 250.6L288.2 250.6Q288.2 252.5 286.8 253.9Q285.4 255.2 283.3 255.2ZM307.9 292.8L307.9 292.8Q302.8 292.8 299.2 290.7Q295.6 288.5 293.7 284.7Q291.8 280.9 291.8 275.9L291.8 275.9Q291.8 270.9 293.7 267.1Q295.7 263.3 299.3 261.1Q302.9 259.0 307.8 259.0L307.8 259.0Q312.1 259.0 315.3 260.6Q318.6 262.1 320.4 264.9Q322.3 267.7 322.5 271.5L322.5 271.5L313.9 271.5Q313.6 269.1 312.0 267.6Q310.5 266.1 308.0 266.1L308.0 266.1Q305.9 266.1 304.3 267.2Q302.7 268.4 301.9 270.5Q301.0 272.7 301.0 275.8L301.0 275.8Q301.0 278.9 301.9 281.1Q302.7 283.3 304.3 284.5Q305.9 285.6 308.0 285.6L308.0 285.6Q309.5 285.6 310.8 285.0Q312.0 284.3 312.9 283.1Q313.7 281.9 313.9 280.2L313.9 280.2L322.5 280.2Q322.3 283.9 320.5 286.8Q318.6 289.6 315.4 291.2Q312.2 292.8 307.9 292.8ZM341.1 292.8L341.1 292.8Q336.2 292.8 332.5 290.7Q328.9 288.6 327.0 284.8Q325.0 281.0 325.0 275.9L325.0 275.9Q325.0 270.9 327.0 267.1Q328.9 263.2 332.5 261.1Q336.2 259.0 341.1 259.0L341.1 259.0Q346.1 259.0 349.7 261.1Q353.3 263.2 355.3 267.1Q357.2 270.9 357.2 275.9L357.2 275.9Q357.2 281.0 355.3 284.8Q353.3 288.6 349.7 290.7Q346.1 292.8 341.1 292.8ZM341.2 285.8L341.2 285.8Q343.4 285.8 344.9 284.5Q346.4 283.2 347.2 281.0Q348.0 278.7 348.0 275.9L348.0 275.9Q348.0 273.0 347.2 270.8Q346.4 268.5 344.9 267.2Q343.4 265.9 341.2 265.9L341.2 265.9Q338.9 265.9 337.3 267.2Q335.8 268.5 335.0 270.8Q334.2 273.0 334.2 275.9L334.2 275.9Q334.2 278.7 335.0 281.0Q335.8 283.2 337.3 284.5Q338.9 285.8 341.2 285.8ZM370.2 273.2L370.2 273.2L370.2 292.2L361.2 292.2L361.2 259.4L369.8 259.4L369.8 265.2L370.2 265.2Q371.3 262.4 373.8 260.7Q376.4 259.0 380.0 259.0L380.0 259.0Q383.4 259.0 386.0 260.5Q388.5 262.0 389.9 264.7Q391.3 267.5 391.3 271.3L391.3 271.3L391.3 292.2L382.2 292.2L382.2 272.9Q382.3 269.9 380.7 268.2Q379.2 266.5 376.4 266.5L376.4 266.5Q374.6 266.5 373.2 267.3Q371.8 268.1 371.0 269.6Q370.2 271.1 370.2 273.2ZM405.5 292.2L396.5 292.2L396.5 259.4L405.5 259.4L405.5 292.2ZM401.0 255.2L401.0 255.2Q399.0 255.2 397.6 253.9Q396.1 252.5 396.1 250.6L396.1 250.6Q396.1 248.7 397.6 247.4Q399.0 246.0 401.0 246.0L401.0 246.0Q403.0 246.0 404.5 247.4Q405.9 248.7 405.9 250.6L405.9 250.6Q405.9 252.5 404.5 253.9Q403.0 255.2 401.0 255.2ZM425.6 292.8L425.6 292.8Q420.5 292.8 416.9 290.7Q413.3 288.5 411.4 284.7Q409.5 280.9 409.5 275.9L409.5 275.9Q409.5 270.9 411.4 267.1Q413.4 263.3 417.0 261.1Q420.6 259.0 425.5 259.0L425.5 259.0Q429.8 259.0 433.0 260.6Q436.2 262.1 438.1 264.9Q440.0 267.7 440.2 271.5L440.2 271.5L431.6 271.5Q431.3 269.1 429.7 267.6Q428.2 266.1 425.7 266.1L425.7 266.1Q423.6 266.1 422.0 267.2Q420.4 268.4 419.6 270.5Q418.7 272.7 418.7 275.8L418.7 275.8Q418.7 278.9 419.5 281.1Q420.4 283.3 422.0 284.5Q423.6 285.6 425.7 285.6L425.7 285.6Q427.2 285.6 428.5 285.0Q429.7 284.3 430.5 283.1Q431.4 281.9 431.6 280.2L431.6 280.2L440.2 280.2Q440.0 283.9 438.1 286.8Q436.3 289.6 433.1 291.2Q429.9 292.8 425.6 292.8Z M483.4 248.5L492.6 248.5L492.6 292.2L484.6 292.2L465.7 264.7L465.3 264.7L465.3 292.2L456.1 292.2L456.1 248.5L464.2 248.5L483.0 276.0L483.4 276.0L483.4 248.5ZM507.4 292.2L498.2 292.2L498.2 248.5L527.1 248.5L527.1 256.1L507.4 256.1L507.4 266.5L525.2 266.5L525.2 274.1L507.4 274.1L507.4 292.2ZM543 256.1L529.6 256.1L529.6 248.5L565.5 248.5L565.5 256.1L552.1 256.1L552.1 292.2L543 292.2L543 256.1ZM592.0 268.8L592.0 268.8L583.7 269.3Q583.5 268.2 582.8 267.3Q582.1 266.5 581.0 266.0Q579.8 265.4 578.2 265.4L578.2 265.4Q576.1 265.4 574.7 266.3Q573.2 267.2 573.2 268.7L573.2 268.7Q573.2 269.9 574.2 270.7Q575.1 271.5 577.4 272.0L577.4 272.0L583.3 273.2Q588.1 274.1 590.4 276.3Q592.8 278.5 592.8 282.0L592.8 282.0Q592.8 285.2 590.9 287.7Q589.0 290.1 585.7 291.4Q582.5 292.8 578.2 292.8L578.2 292.8Q571.7 292.8 567.9 290.1Q564.0 287.4 563.4 282.7L563.4 282.7L572.3 282.2Q572.7 284.2 574.2 285.2Q575.8 286.3 578.2 286.3L578.2 286.3Q580.6 286.3 582.1 285.3Q583.5 284.4 583.5 282.9L583.5 282.9Q583.5 281.7 582.5 280.9Q581.5 280.1 579.4 279.7L579.4 279.7L573.7 278.5Q568.9 277.6 566.6 275.2Q564.2 272.9 564.2 269.2L564.2 269.2Q564.2 266.0 565.9 263.8Q567.7 261.5 570.8 260.2Q573.9 259.0 578.1 259.0L578.1 259.0Q584.3 259.0 587.9 261.6Q591.4 264.2 592.0 268.8Z "></path>
    </clipPath>
    <defs>
        <pattern id="satori_pattern_id-2_0" x="0" y="0" width="1" height="1" patternUnits="objectBoundingBox">
            <linearGradient id="satori_biid-2_0" x1="0" y1="0" x2="1" y2="0">
                <stop offset="0%" stop-color="rgb(255,77,77)"></stop>
                <stop offset="100%" stop-color="rgb(249,203,40)"></stop>
            </linearGradient>
            <rect x="0" y="0" width="463" height="73" fill="url(#satori_biid-2_0)"></rect>
        </pattern>
    </defs>
    <rect x="134" y="236" width="463" height="73" fill="url(#satori_pattern_id-2_0)"
          clip-path="url(#satori_bct-id-2)"></rect>
</svg>
