<svg width="20" height="18" viewBox="0 0 20 18" fill="none" xmlns="http://www.w3.org/2000/svg">
    <path d="M18.1233 0.187549C17.8633 0.199021 17.621 0.274767 17.4077 0.360986C17.2079 0.441357 16.4445 0.768777 15.2421 1.28442C14.0386 1.80052 12.4451 2.48467 10.7452 3.21567C7.34547 4.67768 3.52327 6.32338 1.56553 7.16567C1.49191 7.19733 1.23504 7.2794 0.962402 7.49224C0.689766 7.70508 0.399902 8.14612 0.399902 8.63755C0.399902 9.03382 0.588756 9.4275 0.826465 9.66255C1.06417 9.89759 1.3157 10.0137 1.53115 10.1016C2.31289 10.4206 4.73738 11.4127 5.19521 11.6C5.35634 12.0936 6.23389 14.7781 6.4374 15.436C6.57156 15.8701 6.69926 16.1421 6.86553 16.3579C6.94866 16.4658 7.0453 16.5603 7.1624 16.6344C7.20921 16.664 7.26053 16.6869 7.3124 16.7079L7.31553 16.7094C7.32748 16.7142 7.33778 16.7224 7.3499 16.7266C7.37277 16.7346 7.38806 16.7356 7.41865 16.7422C7.54051 16.7816 7.66354 16.8063 7.77334 16.8063C8.24147 16.8063 8.52803 16.5485 8.52803 16.5485L8.54521 16.536L10.953 14.4532L13.8733 17.2157C13.9145 17.2738 14.2979 17.8 15.1437 17.8C15.6458 17.8 16.0442 17.5481 16.2999 17.2797C16.5556 17.0114 16.715 16.7295 16.7827 16.375V16.3735C16.8461 16.0386 19.5374 2.22192 19.5374 2.22192L19.5327 2.24067C19.6115 1.88106 19.6321 1.54616 19.5452 1.21567C19.4583 0.885186 19.2292 0.568761 18.9452 0.398486C18.6612 0.228249 18.3834 0.176076 18.1233 0.187549ZM17.9733 1.85942C17.9695 1.88277 17.9762 1.87103 17.9702 1.89849L17.9687 1.90786L17.9671 1.91724C17.9671 1.91724 15.3091 15.5571 15.2108 16.0766C15.218 16.0374 15.1852 16.1154 15.1515 16.1625C15.1038 16.1297 15.0062 16.0875 15.0062 16.0875L14.9905 16.0704L11.0015 12.2969L8.18115 14.7344L9.02022 11.375C9.02022 11.375 14.2652 5.94574 14.5812 5.62974C14.8356 5.37694 14.889 5.28881 14.889 5.20161C14.889 5.08481 14.8281 5.00005 14.6921 5.00005C14.5697 5.00005 14.4051 5.11905 14.3171 5.17505C13.1706 5.90588 8.13736 8.83936 5.88115 10.1516C5.5226 10.0049 3.03163 8.98523 2.1874 8.64067C2.19379 8.63787 2.19169 8.63887 2.19834 8.63599C4.1566 7.79348 7.97721 6.14778 11.3765 4.68599C13.0761 3.95509 14.6708 3.27042 15.8733 2.75474C17.0573 2.247 17.88 1.89756 17.9733 1.85942Z"
          fill="#B97FFA"/>
</svg>
