<svg width="10" height="10" viewBox="0 0 10 10" fill="none" xmlns="http://www.w3.org/2000/svg">
    <path d="M6.25 6.1L7.7 6.95L7.3 7.6L5.5 6.5V4H6.25V6.1ZM10 6C10 8.205 8.205 10 6 10C4.99 10 4.07 9.62 3.365 9H1C0.425 9 0 8.575 0 8V3.5C0 2.94 0.445 2.52 1 2.5V2.25C1 1.005 2.005 0 3.25 0C4.42 0 5.37 0.895 5.48 2.04C5.65 2.015 5.825 2 6 2C8.205 2 10 3.795 10 6ZM2 2.5H4.5V2.13C4.44 1.495 3.9 1 3.25 1C2.56 1 2 1.56 2 2.25V2.5ZM9 6C9 4.345 7.655 3 6 3C4.345 3 3 4.345 3 6C3 7.655 4.345 9 6 9C7.655 9 9 7.655 9 6Z"
          fill="#FFFFFF"/>
</svg>
